<svg width="64" height="64" viewBox="0 0 64 64" fill="none" xmlns="http://www.w3.org/2000/svg">
  <defs>
    <linearGradient id="gradient" x1="0%" y1="0%" x2="100%" y2="100%">
      <stop offset="0%" style="stop-color:#C17A72;stop-opacity:1" />
      <stop offset="100%" style="stop-color:#8b5cf6;stop-opacity:1" />
    </linearGradient>
  </defs>

  <!-- Rounded square background -->
  <rect width="64" height="64" rx="14" fill="url(#gradient)"/>

  <!-- AI Robot icon (Material Symbols smart_toy) -->
  <path d="M28 44C26.3431 44 25 42.6569 25 41C25 39.3431 26.3431 38 28 38C29.6569 38 31 39.3431 31 41C31 42.6569 29.6569 44 28 44ZM36 44C34.3431 44 33 42.6569 33 41C33 39.3431 34.3431 38 36 38C37.6569 38 39 39.3431 39 41C39 42.6569 37.6569 44 36 44ZM44 25H40V21C40 18.7909 38.2091 17 36 17H28C25.7909 17 24 18.7909 24 21V25H20C17.7909 25 16 26.7909 16 29V45C16 47.2091 17.7909 49 20 49H44C46.2091 49 48 47.2091 48 45V29C48 26.7909 46.2091 25 44 25ZM36 21V25H28V21H36Z" fill="white"/>
</svg>
